Coordinates
nRows=11
nColumns=24

# SIMM Motion File Header:
name Coordinates
datacolumns 24
datarows 11
otherdata 1
range 1.10000000000000010000 1.11000000000000010000
endheader
time	pelvis_tx	pelvis_ty	pelvis_tz	pelvis_tilt	pelvis_list	pelvis_rotation	hip_flexion_r	hip_adduction_r	hip_rotation_r	knee_angle_r	ankle_angle_r	subtalar_angle_r	mtp_angle_r	hip_flexion_l	hip_adduction_l	hip_rotation_l	knee_angle_l	ankle_angle_l	subtalar_angle_l	mtp_angle_l	lumbar_extension	lumbar_bending	lumbar_rotation
      1.10000000000000010000	      0.57877364864319780000	      1.04001819313045090000	      0.05415283185373590000	      4.81599686036690140000	     -1.86963767215392610000	     -0.96749210591159474000	    -11.43130047267975500000	      3.89757817111851910000	     -2.29073073899114600000	     -6.79599825605634940000	      9.98370044335631590000	      0.10220634042676792000	      0.91601711185415291000	     19.96449177268975500000	     -5.02539272567881580000	     -9.20527000085975900000	    -25.54858446478976600000	     -0.78844187375539510000	     -1.01711994995200650000	     -0.71639744896981594000	    -16.53832120853268600000	      2.93028184622521600000	      2.44859451266319580000
      1.10100000000000000000	      0.57867940046911082000	      1.03987998336442740000	      0.05417259127113139400	      4.80971349272767770000	     -1.90388456241149370000	     -0.98367717538577604000	    -11.51412346820384200000	      3.93115009715615970000	     -2.25405619790517650000	     -6.75612797157453840000	     10.01852952699193000000	      0.10170084066231309000	      0.90643725938894615000	     19.94978604583654700000	     -5.04527743636683110000	     -9.22240050712960090000	    -25.18380629227388900000	     -0.81995635794612887000	     -1.01353086126445910000	     -0.70889236145887891000	    -16.53702704484083300000	      2.95679951054852140000	      2.46616236553014900000
      1.10200000000000010000	      0.57858537738096538000	      1.03974137380544950000	      0.05419216254805207800	      4.80345164598169120000	     -1.93814945187640330000	     -0.99990327989832473000	    -11.59695437521900800000	      3.96470964094835270000	     -2.21730084328953050000	     -6.71637436485296750000	     10.05370618263040000000	      0.10131508475380002000	      0.89629610219158529000	     19.93496990311884100000	     -5.06507563612157870000	     -9.23914569886994030000	    -24.81916514563121700000	     -0.85142491176885393000	     -1.01006410162511280000	     -0.70129991079034681000	    -16.53574941787449100000	      2.98331674500507660000	      2.48373268662001450000
      1.10300000000000000000	      0.57849280097487166000	      1.03960053702243370000	      0.05421054845145020100	      4.79742265735258580000	     -1.97249497689604690000	     -1.01636992957121230000	    -11.67995562206266900000	      3.99815909805340740000	     -2.18007464541377470000	     -6.67725471438045570000	     10.09008604317855900000	      0.10120696488149100000	      0.88395179868995244000	     19.91938890982845200000	     -5.08432850744645040000	     -9.25347696489985520000	    -24.45555269900678000000	     -0.88239896877859969000	     -1.00738070474362740000	     -0.69358138944451042000	    -16.53468461248122200000	      3.00979545422579430000	      2.50130292009246260000
      1.10400000000000010000	      0.57840070679612865000	      1.03945895783140530000	      0.05422853923034080800	      4.79147128809577350000	     -2.00686738043394540000	     -1.03291676096421800000	    -11.76301364884918900000	      4.03157185959609250000	     -2.14269149978463740000	     -6.63834638265761880000	     10.12686697202996200000	      0.10119139035458359000	      0.87087311308688975000	     19.90355296634716700000	     -5.10339960262803590000	     -9.26700358902629700000	    -24.09228315238831200000	     -0.91320819351736104000	     -1.00495842878142860000	     -0.68582084453957026000	    -16.53369074761231200000	      3.03626132170124130000	      2.51887312435911070000
      1.10500000000000000000	      0.57830914382639209000	      1.03931664498066190000	      0.05424610935255803900	      4.78562389558506140000	     -2.04127120731640850000	     -1.04955291220407920000	    -11.84614918573168300000	      4.06494725375137560000	     -2.10513433404779170000	     -6.59964209962759090000	     10.16323049854330100000	      0.10089422115818876000	      0.85839254210232652000	     19.88743582042882000000	     -5.12229307689728850000	     -9.27965415577433640000	    -23.72948445460770700000	     -0.94361969326419215000	     -1.00272648568494600000	     -0.67826712291792934000	    -16.53279747533908400000	      3.06271345629286970000	      2.53644772961564420000
      1.10600000000000010000	      0.57821917448367499000	      1.03917213115077330000	      0.05426241750475517500	      4.78008843331264990000	     -2.07576930423259530000	     -1.06645702298452430000	    -11.92951725290218500000	      4.09821054574447970000	     -2.06705510798778210000	     -6.56154996267595970000	     10.19834181804247200000	      0.09975226795332492500	      0.84770631497326387000	     19.87047506719927600000	     -5.14065368842955640000	     -9.28967655038716340000	    -23.36809830334037100000	     -0.97283801803525072000	     -1.00106554118561510000	     -0.67133387114618448000	    -16.53220598085290800000	      3.08912439223306420000	      2.55403553784185090000
      1.10700000000000000000	      0.57812920514095800000	      1.03902761732088480000	      0.05427872565695231200	      4.77455297104023920000	     -2.11026740114877450000	     -1.08336113376496530000	    -12.01288532007266800000	      4.13147383773757770000	     -2.02897588192778100000	     -6.52345782572433740000	     10.23345313754163400000	      0.09861031474846133900	      0.83702008784420368000	     19.85351431396973600000	     -5.15901429996181980000	     -9.29969894499999050000	    -23.00671215207311300000	     -1.00205634280630270000	     -0.99940459668628423000	     -0.66440061937444117000	    -16.53161448636673100000	      3.11553532817325300000	      2.57162334606805400000
      1.10800000000000010000	      0.57804083147529695000	      1.03888094023315890000	      0.05429375414891314500	      4.76929775905256470000	     -2.14489195946533730000	     -1.10050981897130580000	    -12.09641876126598000000	      4.16466258743091440000	     -1.99043153175162410000	     -6.48596994725306870000	     10.26542459476930700000	      0.09587320243062365200	      0.83126314635431475000	     19.83583736682467700000	     -5.17692780836720520000	     -9.30703673657806970000	    -22.64711934360045500000	     -1.02938800683381610000	     -0.99791713603718402000	     -0.65882879725903942000	    -16.53129361445318700000	      3.14194339440135680000	      2.58921013817253650000
      1.10900000000000000000	      0.57795298970198783000	      1.03873354205948740000	      0.05430835608746188000	      4.76413596382647150000	     -2.17955867158201770000	     -1.11774002898627530000	    -12.18000732713354500000	      4.19782648969098910000	     -1.95173214020342470000	     -6.44868348827526460000	     10.29634943123979300000	      0.09260437040845562200	      0.82714930007750442000	     19.81792168837444400000	     -5.19469228239695640000	     -9.31347966047788670000	    -22.28812431605944200000	     -1.05609078394680080000	     -0.99648750333816194000	     -0.65371078502909197000	    -16.53106295006385900000	      3.16835050405875760000	      2.60679659156977420000
      1.11000000000000010000	      0.57786562613017611000	      1.03858547504986350000	      0.05432255526428193800	      4.75903837243727780000	     -2.21426533430040220000	     -1.13503011709651600000	    -12.26361358081709700000	      4.23096960370834110000	     -1.91293537860373330000	     -6.41160158259175890000	     10.32643461738204500000	      0.08895859267260876300	      0.82431536474775602000	     19.79984361577723100000	     -5.21233484735519430000	     -9.31909675424699020000	    -21.92977264000676700000	     -1.08210050003770350000	     -0.99510224248250667000	     -0.64921468256466763000	    -16.53089133434667000000	      3.19476216568920180000	      2.62436953704879050000
